<?xml version="1.0" encoding="UTF-8"?>
<svg width="1200" height="900" xmlns="http://www.w3.org/2000/svg">
  <defs>
    <style>
      .module {
        fill: #f5f5f5;
        stroke: #333;
        stroke-width: 2;
      }
      .module-text {
        font-family: Arial, sans-serif;
        font-size: 14px;
        font-weight: bold;
        fill: #333;
        text-anchor: middle;
        dominant-baseline: middle;
      }
      .port {
        fill: #666;
        stroke: #333;
        stroke-width: 1;
      }
      .connection {
        stroke: #000;
        stroke-width: 2;
        fill: none;
        stroke-opacity: 1.0;
      }
    </style>
  </defs>

  <!-- Modules -->
  <g class="module-group" id="module-5">
    <rect class="module" x="85.79616" y="194.0" width="132.4" height="60.0" rx="5"/>
    <text class="module-text" x="151.99616" y="224.0">JuliaSource</text>
    <rect class="port" x="202.19616000000002" y="238.0" width="8.0" height="8.0"/>
  </g>
  <g class="module-group" id="module-4">
    <rect class="module" x="43.8" y="122.0" width="132.4" height="60.0" rx="5"/>
    <text class="module-text" x="110.0" y="152.0">JuliaSource</text>
    <rect class="port" x="160.2" y="166.0" width="8.0" height="8.0"/>
  </g>
  <g class="module-group" id="module-6">
    <rect class="module" x="73.19615999999999" y="266.0" width="157.60000000000002" height="60.0" rx="5"/>
    <text class="module-text" x="151.99616" y="296.0">StandardOutput</text>
    <rect class="port" x="81.19615999999999" y="274.0" width="8.0" height="8.0"/>
  </g>
  <g class="module-group" id="module-2">
    <rect class="module" x="135.00176" y="122.0" width="120.0" height="60.0" rx="5"/>
    <text class="module-text" x="195.00176" y="152.0">Sum</text>
    <rect class="port" x="143.00176" y="130.0" width="8.0" height="8.0"/>
    <rect class="port" x="239.00176" y="166.0" width="8.0" height="8.0"/>
  </g>
  <g class="module-group" id="module-3">
    <rect class="module" x="213.79775999999998" y="122.0" width="132.4" height="60.0" rx="5"/>
    <text class="module-text" x="279.99775999999997" y="152.0">JuliaSource</text>
    <rect class="port" x="330.19775999999996" y="166.0" width="8.0" height="8.0"/>
  </g>
  <g class="module-group" id="module-1">
    <rect class="module" x="85.79616" y="50.0" width="132.4" height="60.0" rx="5"/>
    <text class="module-text" x="151.99616" y="80.0">JuliaSource</text>
    <rect class="port" x="202.19616000000002" y="94.0" width="8.0" height="8.0"/>
  </g>

  <!-- Connections -->
  <path class="connection" d="M 206.19616000000002,98.0 C 206.19616000000002,112.4 147.00176,119.6 147.00176,134.0"/>
  <path class="connection" d="M 206.19616000000002,242.0 C 206.19616000000002,256.4 85.19615999999999,263.6 85.19615999999999,278.0"/>

</svg>
